<?xml version="1.0" encoding="utf-8"?>
<!-- Generator: Adobe Illustrator 16.0.2, SVG Export Plug-In . SVG Version: 6.00 Build 0)  -->
<!DOCTYPE svg PUBLIC "-//W3C//DTD SVG 1.1//EN" "http://www.w3.org/Graphics/SVG/1.1/DTD/svg11.dtd">
<svg version="1.1" id="Слой_1" xmlns="http://www.w3.org/2000/svg" xmlns:xlink="http://www.w3.org/1999/xlink" x="0px" y="0px"
	 width="64px" height="64px" viewBox="0 0 64 64" enable-background="new 0 0 64 64" xml:space="preserve">
<path fill="#FFFFFF" d="M31.997,0C14.326,0,0,14.326,0,31.997c0,17.669,14.326,31.995,31.997,31.995
	c17.67,0,31.996-14.326,31.996-31.995C63.992,14.326,49.667,0,31.997,0z M32.009,61.385c-16.386,0-29.669-13.282-29.669-29.667
	c0-16.386,13.283-29.67,29.669-29.67c16.385,0,29.668,13.284,29.668,29.67C61.678,48.103,48.395,61.385,32.009,61.385z"/>
<path fill="#FFFFFF" d="M32.292,2.868c-9.423,0-17.062,7.638-17.062,17.061S22.869,36.99,32.292,36.99
	c9.422,0,17.062-7.638,17.062-17.061S41.714,2.868,32.292,2.868z M32.292,34.67c-8.141,0-14.741-6.6-14.741-14.741
	c0-8.142,6.6-14.74,14.741-14.74c8.14,0,14.741,6.599,14.741,14.74C47.033,28.07,40.433,34.67,32.292,34.67z"/>
<path fill="#FFFFFF" d="M48.216,56.287c0,0-6.053-9.346-9.129-17.81c-4.933-13.573-6.763-29.752-6.763-29.752h-0.032
	c0,0-1.829,16.179-6.762,29.752c-3.075,8.464-9.129,17.81-9.129,17.81s5.59-5.972,15.908-5.972
	C42.625,50.315,48.216,56.287,48.216,56.287z"/>
</svg>
